<svg width="474" height="32" viewBox="0 0 474 32" fill="none" xmlns="http://www.w3.org/2000/svg">
<path fill-rule="evenodd" clip-rule="evenodd" d="M139.366 14.0199C139.366 9.34694 136.264 6.5562 131.61 6.5354C126.898 6.5354 123.855 9.61325 123.855 13.9784C123.855 18.6721 126.957 21.4638 131.61 21.4638C136.325 21.4638 139.366 18.3822 139.366 14.0199ZM136.638 13.9991C136.638 17.0383 134.713 19.0858 131.631 19.0858V19.083C128.322 19.0622 126.585 16.8296 126.585 13.9991C126.585 10.9808 128.489 8.9333 131.592 8.9125C134.901 8.9333 136.638 11.1659 136.638 13.9991Z" fill="#FF0D65"/>
<path fill-rule="evenodd" clip-rule="evenodd" d="M170.74 14.0199C170.74 9.34694 167.637 6.5562 162.984 6.5354C158.269 6.5354 155.229 9.61325 155.228 13.9784C155.228 18.6721 158.331 21.4638 162.984 21.4638C167.699 21.4638 170.74 18.3822 170.74 14.0199ZM168.011 13.9991C168.011 17.0383 166.086 19.0858 163.005 19.0858L163.006 19.083C159.697 19.0622 157.959 16.8296 157.958 13.9991C157.958 10.9808 159.863 8.9333 162.965 8.9125C166.274 8.9333 168.011 11.1659 168.011 13.9991Z" fill="#FF0D65"/>
<path fill-rule="evenodd" clip-rule="evenodd" d="M173.45 21.2334V6.76016H179.737C182.964 6.76016 184.618 7.95863 184.618 10.3574C184.618 12.0111 183.957 13.1076 182.467 13.6865C184.246 13.9963 185.052 15.1334 185.052 17.0147C185.052 20.0132 182.901 21.2334 179.384 21.2334H173.45ZM179.365 12.88C180.999 12.88 182.032 12.1566 182.032 10.9156C182.032 9.75777 181.267 9.13726 179.427 9.13726H176.036V12.88H179.365ZM179.553 18.8553C181.537 18.8553 182.449 18.2141 182.449 16.8286C182.449 15.4432 181.415 14.9058 179.595 14.9058H176.038V18.8553H179.553Z" fill="#FF0D65"/>
<path fill-rule="evenodd" clip-rule="evenodd" d="M192.539 11.267H190.574V6.76016H187.989V21.2334H192.563C196.782 21.2334 199.057 19.5372 199.057 16.1675C199.057 12.9008 197.13 11.267 192.539 11.267ZM190.574 18.8553V13.645H192.767C195.29 13.645 196.386 14.3269 196.386 16.1052C196.386 18.0696 195.145 18.8553 192.725 18.8553H190.574Z" fill="#FF0D65"/>
<path d="M204.348 14.9681H211.008L211.011 12.5901H204.351V9.13726H211.776V6.76016H201.763V21.2334H212V18.8553H204.348V14.9681Z" fill="#FF0D65"/>
<path fill-rule="evenodd" clip-rule="evenodd" d="M144.657 16.7257V21.2334H142.072V6.76016H146.89C151.46 6.76016 153.408 8.39307 153.408 11.6598C153.408 15.0304 151.133 16.7257 146.89 16.7257H144.657ZM144.657 9.13726V14.3476H147.077C149.476 14.3476 150.716 13.5619 150.716 11.5984C150.716 9.82008 149.641 9.13726 147.118 9.13726H144.657Z" fill="#FF0D65"/>
<path fill-rule="evenodd" clip-rule="evenodd" d="M109.192 18.8553C110.018 16.891 110.618 14.1616 110.68 9.75777L110.722 6.76016H120.897V18.8553H122.572V23.9212H120.153V21.2334H110.039V23.9212H107.62V18.8553H109.192ZM111.715 18.8553H118.311V9.13726H113.08V9.82008C112.997 13.6034 112.539 16.5812 111.715 18.8553Z" fill="#FF0D65"/>
<path d="M100.174 6.55343C97.8782 6.55343 96.2033 7.23532 95.3757 7.83499L95.3738 11.4323C96.2222 10.1507 97.9802 8.88995 100.172 8.93053C101.702 8.97208 102.902 9.50945 102.902 10.8534C102.902 11.9291 102.26 12.8178 100.4 12.8178H98.2267V14.9474H100.419C102.673 14.9474 103.625 15.5471 103.625 16.8287C103.625 18.2973 102.219 19.0415 100.461 19.0623C97.7922 19.0831 95.9104 17.9252 95.0215 16.4566V19.6412C95.7905 20.5091 97.7922 21.4611 100.419 21.4403C104.308 21.4196 106.313 19.4967 106.313 16.995C106.313 15.092 105.241 13.9341 103.007 13.6035C104.683 13.0038 105.572 11.8875 105.572 10.1923C105.572 7.64897 103.421 6.57423 100.174 6.55343Z" fill="#FF0D65"/>
<path d="M39.2596 18.6447C40.1995 18.65 41.1256 18.4191 41.9518 17.9736L42.6431 17.6015L44.6611 19.0796C43.3296 20.4967 41.3672 21.2756 39.1191 21.2756C36.97 21.2756 35.0057 20.5173 33.6006 19.1517C32.1956 17.7862 31.4214 15.8882 31.4214 13.8263C31.4214 11.7643 32.2069 9.8945 33.6092 8.57768C35.0114 7.26086 36.9747 6.5354 39.1389 6.5354C41.1343 6.5354 42.8788 7.13807 44.1849 8.2787L44.3329 8.40336L42.0961 10.0417C41.2696 9.4542 40.2756 9.14515 39.2596 9.1597C36.4485 9.1597 34.4079 11.1542 34.4079 13.9022C34.4079 16.6502 36.4485 18.6447 39.2596 18.6447Z" fill="#21A038"/>
<path fill-rule="evenodd" clip-rule="evenodd" d="M54.2174 12.319H50.4228V9.11174H56.4797L59.7443 6.72084H47.3043V21.0842H53.811C57.4632 21.0842 59.5576 19.4394 59.5576 16.5723C59.5614 13.8299 57.6631 12.319 54.2174 12.319ZM53.6742 18.6923H50.4228V14.7109H53.6742C55.6546 14.7109 56.5749 15.3773 56.5749 16.7017C56.5749 18.055 55.5951 18.6923 53.6742 18.6923Z" fill="#21A038"/>
<path d="M73.3914 6.72084L70.1267 9.11174H65.5834V12.6236H72.2438V15.0155H65.5834V18.6923H73.3914V21.0842H62.4649V6.72084H73.3914Z" fill="#21A038"/>
<path fill-rule="evenodd" clip-rule="evenodd" d="M76.2949 6.72084H82.2443C86.0398 6.72084 88.3964 8.68998 88.3964 11.8607C88.3964 15.0314 86.0379 17.0156 82.2424 17.0156H79.4134V21.0842H76.2949V6.72084ZM79.4134 14.6237H82.1773C84.1755 14.6237 85.2751 13.6452 85.2751 11.8682C85.2751 10.0912 84.1755 9.11174 82.1773 9.11174H79.4134V14.6237Z" fill="#21A038"/>
<path d="M21.556 6.6626C22.1239 7.39478 22.6096 8.19481 22.998 9.04761L12.0338 17.1063L7.45276 14.2426V10.7975L12.0338 13.6612L21.556 6.6626Z" fill="#21A038"/>
<path d="M2.78001 13.9996C2.78001 13.845 2.78379 13.6914 2.79135 13.5388L0.0151194 13.4003C0.00566998 13.5991 0 13.7989 0 13.9996C0 17.3128 1.34654 20.3131 3.52462 22.4852L5.49293 20.5223C3.8185 18.8507 2.78001 16.5439 2.78001 13.9996Z" fill="url(#paint0_linear_145_112449)"/>
<path d="M12.0338 4.77137C12.1888 4.77137 12.3428 4.77702 12.4959 4.78456L12.6348 2.01508C12.4354 2.00565 12.2351 2 12.0338 2C8.71143 2 5.70274 3.34281 3.52466 5.51486L5.49297 7.47772C7.16929 5.80604 9.4825 4.77137 12.0338 4.77137Z" fill="url(#paint1_linear_145_112449)"/>
<path d="M12.0338 23.2277C11.8789 23.2277 11.7248 23.224 11.5718 23.2164L11.4329 25.985C11.6322 25.9944 11.8326 26.0001 12.0338 26.0001C15.3562 26.0001 18.3649 24.6572 20.543 22.4852L18.5747 20.5223C16.8984 22.1921 14.5852 23.2277 12.0338 23.2277Z" fill="url(#paint2_linear_145_112449)"/>
<path d="M17.2508 6.3818L19.5914 4.66206C17.5258 2.99698 14.897 2 12.0338 2V4.77231C13.9681 4.77137 15.7644 5.36692 17.2508 6.3818Z" fill="url(#paint3_linear_145_112449)"/>
<path d="M24.0666 13.9995C24.0666 13.2654 24.0004 12.5474 23.8738 11.8491L21.2837 13.7526C21.2856 13.8346 21.2875 13.9166 21.2875 13.9986C21.2875 16.7077 20.1101 19.1483 18.2391 20.8379L20.1073 22.8969C22.5386 20.7022 24.0666 17.5285 24.0666 13.9995Z" fill="#21A038"/>
<path d="M12.0339 23.2277C9.3172 23.2277 6.86981 22.0535 5.17553 20.1877L3.11084 22.0507C5.31255 24.4763 8.4951 26 12.0339 26V23.2277Z" fill="url(#paint4_linear_145_112449)"/>
<path d="M5.82839 7.16017L3.96024 5.1012C1.52797 7.29681 0 10.4705 0 13.9995H2.78001C2.78096 11.2894 3.95741 8.84975 5.82839 7.16017Z" fill="url(#paint5_linear_145_112449)"/>
<line x1="227.668" y1="26.0001" x2="227.668" y2="2.00006" stroke="#363636" stroke-width="1.3"/>
<path d="M266.13 6.66876C266.699 7.40874 267.173 8.20551 267.572 9.05926L256.624 17.1224L252.052 14.2576V10.8047L256.624 13.6695L266.13 6.66876Z" fill="#21A038"/>
<path d="M247.407 14.0091C247.407 13.8574 247.407 13.7055 247.426 13.5538L244.656 13.421C244.637 13.6107 244.637 13.8194 244.637 14.028C244.637 17.3482 245.984 20.3458 248.147 22.5086L250.12 20.5355C248.431 18.8659 247.407 16.5513 247.407 14.0091Z" fill="url(#paint6_linear_145_112449)"/>
<path d="M256.628 4.7699C256.779 4.7699 256.931 4.7699 257.083 4.78893L257.216 2.01903C257.026 2 256.817 2 256.609 2C253.288 2 250.291 3.34704 248.128 5.50988L250.101 7.48292C251.771 5.81336 254.085 4.7699 256.628 4.7699Z" fill="url(#paint7_linear_145_112449)"/>
<path d="M256.628 23.2302C256.477 23.2302 256.325 23.2302 256.173 23.2111L256.04 25.981C256.23 26.0001 256.439 26.0001 256.647 26.0001C259.968 26.0001 262.965 24.653 265.128 22.4902L263.155 20.5172C261.485 22.2056 259.171 23.2302 256.628 23.2302Z" fill="url(#paint8_linear_145_112449)"/>
<path d="M261.848 6.38257L264.181 4.65612C262.113 2.98657 259.495 2 256.649 2V4.7699C258.565 4.7699 260.349 5.37707 261.848 6.38257Z" fill="url(#paint9_linear_145_112449)"/>
<path d="M268.636 14.009C268.636 13.2691 268.579 12.5482 268.446 11.8652L265.866 13.7624C265.866 13.8382 265.866 13.9331 265.866 14.009C265.866 16.722 264.689 19.1694 262.83 20.8579L264.689 22.9259C267.118 20.7061 268.636 17.5378 268.636 14.009Z" fill="#21A038"/>
<path d="M256.625 23.2303C253.912 23.2303 251.465 22.054 249.776 20.1948L247.708 22.054C249.909 24.4824 253.077 26.0002 256.606 26.0002V23.2303H256.625Z" fill="url(#paint10_linear_145_112449)"/>
<path d="M250.442 7.15981L248.583 5.09192C246.155 7.29262 244.637 10.461 244.637 13.9898H247.407C247.407 11.2958 248.583 8.84839 250.442 7.15981Z" fill="url(#paint11_linear_145_112449)"/>
<path d="M314.954 9.22722L318.186 6.84283H307.369V21.1613H318.186V18.7778H310.456V15.1116H317.049V12.7281H310.456V9.22722H314.954Z" fill="#21A038"/>
<path d="M299.198 12.4245H295.442V9.22728H301.439L304.67 6.8429H292.356V21.1613H298.801C302.416 21.1613 304.489 19.5216 304.489 16.6635C304.489 13.9306 302.61 12.4245 299.198 12.4245ZM298.661 18.7779H295.443V14.8089H298.661C300.621 14.8089 301.533 15.4732 301.533 16.7934C301.533 18.1425 300.567 18.7779 298.661 18.7779Z" fill="#21A038"/>
<path d="M326.95 6.84375H321.061V21.1622H324.148V17.1063H326.95C330.708 17.1063 333.043 15.1284 333.043 11.9676C333.043 8.80675 330.708 6.84375 326.95 6.84375ZM326.884 14.7219H324.148V9.2272H326.884C328.862 9.2272 329.951 10.2026 329.951 11.9741C329.951 13.7465 328.862 14.7219 326.884 14.7219Z" fill="#21A038"/>
<path d="M287.06 18.0606C286.268 18.4979 285.347 18.7287 284.395 18.7287C281.612 18.7287 279.592 16.7404 279.592 14.001C279.592 11.2616 281.612 9.27335 284.395 9.27335C285.448 9.27335 286.391 9.56953 287.203 10.1525L289.417 8.51936L289.27 8.39042C287.977 7.25335 286.251 6.65259 284.275 6.65259C282.133 6.65259 280.188 7.37575 278.8 8.68847C277.404 10.0096 276.635 11.867 276.635 13.9207C276.635 15.9836 277.402 17.8691 278.793 19.2304C280.188 20.5954 282.128 21.3476 284.256 21.3476C286.481 21.3476 288.424 20.5711 289.741 19.1584C288.724 18.4091 287.743 17.685 287.743 17.685L287.06 18.0606Z" fill="#21A038"/>
<path d="M354.184 10.4004L349.586 18.0095H348.298L343.598 10.5023V21.1591H341.043V6.84161H344.272L349.013 14.6348L353.714 6.84161H356.738V21.1601H354.183V10.4004H354.184Z" fill="#222458"/>
<path d="M367.45 6.84064L373.336 21.1591H370.617L369.248 17.7638H362.687L361.338 21.1591H358.743L364.548 6.84064H367.45ZM363.608 15.4111H368.308L365.957 9.54082L363.608 15.4111Z" fill="#222458"/>
<path d="M377.912 16.6996V21.1591H375.357V6.84064H380.118C384.635 6.84064 386.556 8.45701 386.556 11.6888C386.556 15.0234 384.308 16.7005 380.118 16.7005H377.912V16.6996ZM377.912 9.19232V14.347H380.302C382.673 14.347 383.899 13.5696 383.899 11.6262C383.899 9.8669 382.837 9.19232 380.343 9.19232H377.912Z" fill="#222458"/>
<path d="M391.931 21.1581H389.376V6.84064H391.931V12.8539H394.077L398.676 6.84064H401.782L396.326 13.6518L402.662 21.1591H399.392L394.201 14.9608H391.932V21.1581H391.931Z" fill="#222458"/>
<path d="M413.823 14.9603H407.242V18.806H414.803V21.1586H404.687V6.84015H414.578V9.19277H407.241V12.6086H413.822V14.9603H413.823Z" fill="#222458"/>
<path d="M428.468 9.19276H423.644V21.1586H421.089V9.19276H416.348V6.84015H428.468V9.19276Z" fill="#222458"/>
<path d="M433.173 17.5381L440.979 6.84015H443.758V21.1586H441.203V10.2971L433.356 21.1586H430.617V6.84108H433.171V17.5381H433.173Z" fill="#222458"/>
<path d="M457.864 14.9603H450.037V21.1586H447.482V6.84015H450.037V12.6086H457.864V6.84015H460.419V21.1586H457.864V14.9603Z" fill="#222458"/>
<path d="M473.843 9.19232H466.69V21.1581H464.135V6.84064H473.843V9.19232Z" fill="#222458"/>
<defs>
<linearGradient id="paint0_linear_145_112449" x1="4.08768" y1="22.1377" x2="1.06533" y2="13.3771" gradientUnits="userSpaceOnUse">
<stop offset="0.1444" stop-color="#F2E913"/>
<stop offset="0.3037" stop-color="#E7E518"/>
<stop offset="0.5823" stop-color="#CADB26"/>
<stop offset="0.891" stop-color="#A3CD39"/>
</linearGradient>
<linearGradient id="paint1_linear_145_112449" x1="4.31917" y1="6.00493" x2="12.1366" y2="3.0176" gradientUnits="userSpaceOnUse">
<stop offset="0.0592" stop-color="#0FA8E0"/>
<stop offset="0.5385" stop-color="#0099F9"/>
<stop offset="0.9234" stop-color="#0291EB"/>
</linearGradient>
<linearGradient id="paint2_linear_145_112449" x1="11.2494" y1="24.3269" x2="20.0934" y2="22.3225" gradientUnits="userSpaceOnUse">
<stop offset="0.1226" stop-color="#A3CD39"/>
<stop offset="0.2846" stop-color="#86C339"/>
<stop offset="0.8693" stop-color="#21A038"/>
</linearGradient>
<linearGradient id="paint3_linear_145_112449" x1="11.4522" y1="2.92855" x2="19.0121" y2="5.26758" gradientUnits="userSpaceOnUse">
<stop offset="0.0566" stop-color="#0291EB"/>
<stop offset="0.79" stop-color="#0C8ACB"/>
</linearGradient>
<linearGradient id="paint4_linear_145_112449" x1="3.80813" y1="21.7129" x2="12.0354" y2="24.7954" gradientUnits="userSpaceOnUse">
<stop offset="0.1324" stop-color="#F2E913"/>
<stop offset="0.2977" stop-color="#EBE716"/>
<stop offset="0.5306" stop-color="#D9E01F"/>
<stop offset="0.8023" stop-color="#BBD62D"/>
<stop offset="0.9829" stop-color="#A3CD39"/>
</linearGradient>
<linearGradient id="paint5_linear_145_112449" x1="1.03609" y1="14.3354" x2="4.32488" y2="5.75619" gradientUnits="userSpaceOnUse">
<stop offset="0.0698" stop-color="#A3CD39"/>
<stop offset="0.2599" stop-color="#81C55F"/>
<stop offset="0.9216" stop-color="#0FA8E0"/>
</linearGradient>
<linearGradient id="paint6_linear_145_112449" x1="248.706" y1="22.1475" x2="245.676" y2="13.389" gradientUnits="userSpaceOnUse">
<stop offset="0.1444" stop-color="#F2E913"/>
<stop offset="0.3037" stop-color="#E7E518"/>
<stop offset="0.5823" stop-color="#CADB26"/>
<stop offset="0.891" stop-color="#A3CD39"/>
</linearGradient>
<linearGradient id="paint7_linear_145_112449" x1="248.936" y1="6.00925" x2="256.74" y2="3.03521" gradientUnits="userSpaceOnUse">
<stop offset="0.0592" stop-color="#0FA8E0"/>
<stop offset="0.5385" stop-color="#0099F9"/>
<stop offset="0.9234" stop-color="#0291EB"/>
</linearGradient>
<linearGradient id="paint8_linear_145_112449" x1="255.851" y1="24.3381" x2="264.676" y2="22.3435" gradientUnits="userSpaceOnUse">
<stop offset="0.1226" stop-color="#A3CD39"/>
<stop offset="0.2846" stop-color="#86C339"/>
<stop offset="0.8693" stop-color="#21A038"/>
</linearGradient>
<linearGradient id="paint9_linear_145_112449" x1="256.055" y1="2.93223" x2="263.6" y2="5.26043" gradientUnits="userSpaceOnUse">
<stop offset="0.0566" stop-color="#0291EB"/>
<stop offset="0.79" stop-color="#0C8ACB"/>
</linearGradient>
<linearGradient id="paint10_linear_145_112449" x1="248.424" y1="21.7237" x2="256.637" y2="24.7924" gradientUnits="userSpaceOnUse">
<stop offset="0.1324" stop-color="#F2E913"/>
<stop offset="0.2977" stop-color="#EBE716"/>
<stop offset="0.5306" stop-color="#D9E01F"/>
<stop offset="0.8023" stop-color="#BBD62D"/>
<stop offset="0.9829" stop-color="#A3CD39"/>
</linearGradient>
<linearGradient id="paint11_linear_145_112449" x1="245.661" y1="14.3425" x2="248.958" y2="5.76642" gradientUnits="userSpaceOnUse">
<stop offset="0.0698" stop-color="#A3CD39"/>
<stop offset="0.2599" stop-color="#81C55F"/>
<stop offset="0.9216" stop-color="#0FA8E0"/>
</linearGradient>
</defs>
</svg>
