<svg width="474" height="32" viewBox="0 0 474 32" fill="none" xmlns="http://www.w3.org/2000/svg">
<path fill-rule="evenodd" clip-rule="evenodd" d="M139.366 14.02C139.366 9.34697 136.264 6.55623 131.61 6.53543C126.898 6.53543 123.855 9.61328 123.855 13.9784C123.855 18.6722 126.957 21.4639 131.61 21.4639C136.325 21.4639 139.366 18.3822 139.366 14.02ZM136.638 13.9992C136.638 17.0383 134.713 19.0859 131.631 19.0859V19.083C128.322 19.0622 126.585 16.8296 126.585 13.9992C126.585 10.9808 128.489 8.93333 131.592 8.91253C134.901 8.93333 136.638 11.1659 136.638 13.9992Z" fill="#FF0D65"/>
<path fill-rule="evenodd" clip-rule="evenodd" d="M170.74 14.02C170.74 9.34697 167.637 6.55623 162.984 6.53543C158.269 6.53543 155.229 9.61328 155.228 13.9784C155.228 18.6722 158.331 21.4639 162.984 21.4639C167.699 21.4639 170.74 18.3822 170.74 14.02ZM168.011 13.9992C168.011 17.0383 166.086 19.0859 163.005 19.0859L163.006 19.083C159.697 19.0622 157.959 16.8296 157.958 13.9992C157.958 10.9808 159.863 8.93333 162.965 8.91253C166.274 8.93333 168.011 11.1659 168.011 13.9992Z" fill="#FF0D65"/>
<path fill-rule="evenodd" clip-rule="evenodd" d="M173.45 21.2334V6.76019H179.737C182.964 6.76019 184.618 7.95866 184.618 10.3575C184.618 12.0112 183.957 13.1076 182.467 13.6866C184.246 13.9964 185.052 15.1334 185.052 17.0147C185.052 20.0133 182.901 21.2334 179.384 21.2334H173.45ZM179.365 12.88C180.999 12.88 182.032 12.1566 182.032 10.9156C182.032 9.75781 181.267 9.13729 179.427 9.13729H176.036V12.88H179.365ZM179.553 18.8554C181.537 18.8554 182.449 18.2141 182.449 16.8286C182.449 15.4432 181.415 14.9058 179.595 14.9058H176.038V18.8554H179.553Z" fill="#FF0D65"/>
<path fill-rule="evenodd" clip-rule="evenodd" d="M192.539 11.267H190.574V6.76019H187.989V21.2334H192.563C196.782 21.2334 199.057 19.5373 199.057 16.1676C199.057 12.9008 197.13 11.267 192.539 11.267ZM190.574 18.8554V13.645H192.767C195.29 13.645 196.386 14.3269 196.386 16.1053C196.386 18.0696 195.145 18.8554 192.725 18.8554H190.574Z" fill="#FF0D65"/>
<path d="M204.348 14.9682H211.008L211.011 12.5901H204.351V9.13729H211.776V6.76019H201.763V21.2334H212V18.8554H204.348V14.9682Z" fill="#FF0D65"/>
<path fill-rule="evenodd" clip-rule="evenodd" d="M144.657 16.7257V21.2334H142.072V6.76019H146.89C151.46 6.76019 153.408 8.3931 153.408 11.6598C153.408 15.0305 151.133 16.7257 146.89 16.7257H144.657ZM144.657 9.13729V14.3477H147.077C149.476 14.3477 150.716 13.5619 150.716 11.5985C150.716 9.82011 149.641 9.13729 147.118 9.13729H144.657Z" fill="#FF0D65"/>
<path fill-rule="evenodd" clip-rule="evenodd" d="M109.192 18.8554C110.018 16.891 110.618 14.1616 110.68 9.75781L110.722 6.76019H120.897V18.8554H122.572V23.9213H120.153V21.2334H110.039V23.9213H107.62V18.8554H109.192ZM111.715 18.8554H118.311V9.13729H113.08V9.82011C112.997 13.6035 112.539 16.5812 111.715 18.8554Z" fill="#FF0D65"/>
<path d="M100.174 6.55346C97.8782 6.55346 96.2033 7.23535 95.3757 7.83502L95.3738 11.4324C96.2222 10.1507 97.9802 8.88998 100.172 8.93056C101.702 8.97211 102.902 9.50948 102.902 10.8534C102.902 11.9291 102.26 12.8178 100.4 12.8178H98.2267V14.9475H100.419C102.673 14.9475 103.625 15.5472 103.625 16.8287C103.625 18.2973 102.219 19.0415 100.461 19.0623C97.7922 19.0831 95.9104 17.9252 95.0215 16.4566V19.6413C95.7905 20.5092 97.7922 21.4612 100.419 21.4404C104.308 21.4196 106.313 19.4967 106.313 16.995C106.313 15.092 105.241 13.9341 103.007 13.6036C104.683 13.0038 105.572 11.8875 105.572 10.1923C105.572 7.649 103.421 6.57426 100.174 6.55346Z" fill="#FF0D65"/>
<path d="M39.2601 18.6447C40.2 18.65 41.1261 18.4192 41.9523 17.9737L42.6436 17.6015L44.6616 19.0796C43.33 20.4967 41.3677 21.2756 39.1196 21.2756C36.9705 21.2756 35.0062 20.5174 33.6011 19.1518C32.1961 17.7862 31.4219 15.8883 31.4219 13.8263C31.4219 11.7644 32.2074 9.89453 33.6096 8.57771C35.0119 7.26089 36.9752 6.53543 39.1394 6.53543C41.1347 6.53543 42.8793 7.1381 44.1854 8.27873L44.3334 8.40339L42.0966 10.0417C41.2701 9.45423 40.2761 9.14518 39.2601 9.15974C36.449 9.15974 34.4084 11.1542 34.4084 13.9022C34.4084 16.6502 36.449 18.6447 39.2601 18.6447Z" fill="#21A038"/>
<path fill-rule="evenodd" clip-rule="evenodd" d="M54.2179 12.3191H50.4233V9.11177H56.4802L59.7448 6.72087H47.3048V21.0842H53.8115C57.4637 21.0842 59.5581 19.4394 59.5581 16.5723C59.5619 13.8299 57.6636 12.3191 54.2179 12.3191ZM53.6747 18.6924H50.4233V14.7109H53.6747C55.655 14.7109 56.5754 15.3773 56.5754 16.7017C56.5754 18.0551 55.5956 18.6924 53.6747 18.6924Z" fill="#21A038"/>
<path d="M73.3919 6.72087L70.1272 9.11177H65.5838V12.6237H72.2442V15.0155H65.5838V18.6924H73.3919V21.0842H62.4654V6.72087H73.3919Z" fill="#21A038"/>
<path fill-rule="evenodd" clip-rule="evenodd" d="M76.2954 6.72087H82.2448C86.0403 6.72087 88.3969 8.69001 88.3969 11.8607C88.3969 15.0315 86.0384 17.0156 82.2429 17.0156H79.4139V21.0842H76.2954V6.72087ZM79.4139 14.6238H82.1778C84.176 14.6238 85.2756 13.6453 85.2756 11.8682C85.2756 10.0912 84.176 9.11177 82.1778 9.11177H79.4139V14.6238Z" fill="#21A038"/>
<path d="M21.5563 6.6626C22.1243 7.39478 22.61 8.19481 22.9983 9.04761L12.0342 17.1063L7.45312 14.2426V10.7975L12.0342 13.6612L21.5563 6.6626Z" fill="#21A038"/>
<path d="M2.78001 13.9996C2.78001 13.845 2.78379 13.6914 2.79135 13.5388L0.0151194 13.4002C0.00566998 13.5991 0 13.7988 0 13.9996C0 17.3128 1.34654 20.3131 3.52462 22.4852L5.49293 20.5223C3.8185 18.8506 2.78001 16.5438 2.78001 13.9996Z" fill="url(#paint0_linear_145_112758)"/>
<path d="M12.0336 4.77137C12.1886 4.77137 12.3426 4.77702 12.4957 4.78456L12.6346 2.01508C12.4352 2.00565 12.2349 2 12.0336 2C8.71119 2 5.7025 3.34281 3.52441 5.51486L5.49272 7.47772C7.16904 5.80604 9.48226 4.77137 12.0336 4.77137Z" fill="url(#paint1_linear_145_112758)"/>
<path d="M12.0336 23.2277C11.8786 23.2277 11.7246 23.2239 11.5715 23.2164L11.4326 25.985C11.632 25.9944 11.8323 26 12.0336 26C15.356 26 18.3647 24.6572 20.5428 22.4852L18.5745 20.5223C16.8981 22.1921 14.5849 23.2277 12.0336 23.2277Z" fill="url(#paint2_linear_145_112758)"/>
<path d="M17.2512 6.3818L19.5918 4.66206C17.5262 2.99698 14.8973 2 12.0342 2V4.77231C13.9685 4.77137 15.7648 5.36692 17.2512 6.3818Z" fill="url(#paint3_linear_145_112758)"/>
<path d="M24.0667 13.9995C24.0667 13.2655 24.0006 12.5474 23.8739 11.8492L21.2839 13.7526C21.2857 13.8346 21.2876 13.9166 21.2876 13.9986C21.2876 16.7078 20.1102 19.1484 18.2393 20.838L20.1074 22.8969C22.5387 20.7023 24.0667 17.5285 24.0667 13.9995Z" fill="#21A038"/>
<path d="M12.0334 23.2277C9.31671 23.2277 6.86932 22.0536 5.17505 20.1878L3.11035 22.0507C5.31206 24.4763 8.49462 26 12.0334 26V23.2277Z" fill="url(#paint4_linear_145_112758)"/>
<path d="M5.82839 7.16014L3.96024 5.10117C1.52797 7.29678 0 10.4705 0 13.9995H2.78001C2.78096 11.2894 3.95741 8.84972 5.82839 7.16014Z" fill="url(#paint5_linear_145_112758)"/>
<line x1="227.668" y1="26.0001" x2="227.668" y2="2.00009" stroke="#363636" stroke-width="1.3"/>
<path d="M266.129 6.66876C266.699 7.40874 267.173 8.20551 267.571 9.05926L256.624 17.1224L252.052 14.2576V10.8047L256.624 13.6695L266.129 6.66876Z" fill="#21A038"/>
<path d="M247.407 14.0091C247.407 13.8574 247.407 13.7055 247.426 13.5538L244.656 13.421C244.637 13.6107 244.637 13.8194 244.637 14.0281C244.637 17.3482 245.984 20.3458 248.147 22.5086L250.12 20.5355C248.431 18.8659 247.407 16.5514 247.407 14.0091Z" fill="url(#paint6_linear_145_112758)"/>
<path d="M256.628 4.7699C256.779 4.7699 256.931 4.7699 257.083 4.78893L257.216 2.01903C257.026 2 256.817 2 256.609 2C253.288 2 250.291 3.34704 248.128 5.50988L250.101 7.48292C251.771 5.81336 254.085 4.7699 256.628 4.7699Z" fill="url(#paint7_linear_145_112758)"/>
<path d="M256.628 23.2302C256.476 23.2302 256.325 23.2302 256.173 23.2111L256.04 25.981C256.23 26.0001 256.438 26.0001 256.647 26.0001C259.967 26.0001 262.965 24.653 265.128 22.4902L263.155 20.5172C261.485 22.2056 259.17 23.2302 256.628 23.2302Z" fill="url(#paint8_linear_145_112758)"/>
<path d="M261.848 6.38257L264.181 4.65612C262.114 2.98657 259.495 2 256.649 2V4.7699C258.566 4.7699 260.349 5.37707 261.848 6.38257Z" fill="url(#paint9_linear_145_112758)"/>
<path d="M268.636 14.009C268.636 13.2691 268.579 12.5482 268.446 11.8652L265.866 13.7624C265.866 13.8382 265.866 13.9331 265.866 14.009C265.866 16.722 264.689 19.1694 262.83 20.8579L264.689 22.9259C267.118 20.7061 268.636 17.5378 268.636 14.009Z" fill="#21A038"/>
<path d="M256.625 23.2303C253.912 23.2303 251.465 22.054 249.776 20.1947L247.708 22.054C249.909 24.4824 253.077 26.0002 256.606 26.0002V23.2303H256.625Z" fill="url(#paint10_linear_145_112758)"/>
<path d="M250.442 7.15978L248.583 5.09189C246.155 7.29259 244.637 10.4609 244.637 13.9897H247.407C247.407 11.2958 248.583 8.84836 250.442 7.15978Z" fill="url(#paint11_linear_145_112758)"/>
<path d="M314.954 9.22722L318.187 6.84283H307.369V21.1613H318.187V18.7778H310.456V15.1116H317.05V12.7281H310.456V9.22722H314.954Z" fill="#21A038"/>
<path d="M299.198 12.4245H295.442V9.22725H301.438L304.67 6.84286H292.355V21.1613H298.8C302.416 21.1613 304.489 19.5216 304.489 16.6635C304.489 13.9306 302.61 12.4245 299.198 12.4245ZM298.661 18.7779H295.443V14.8089H298.661C300.621 14.8089 301.533 15.4732 301.533 16.7934C301.533 18.1425 300.567 18.7779 298.661 18.7779Z" fill="#21A038"/>
<path d="M326.95 6.84378H321.061V21.1622H324.148V17.1063H326.95C330.708 17.1063 333.043 15.1284 333.043 11.9676C333.043 8.80678 330.708 6.84378 326.95 6.84378ZM326.884 14.722H324.148V9.22723H326.884C328.862 9.22723 329.951 10.2027 329.951 11.9741C329.951 13.7465 328.862 14.722 326.884 14.722Z" fill="#21A038"/>
<path d="M287.06 18.0606C286.269 18.4979 285.347 18.7287 284.395 18.7287C281.612 18.7287 279.592 16.7404 279.592 14.001C279.592 11.2616 281.612 9.27335 284.395 9.27335C285.448 9.27335 286.392 9.56953 287.203 10.1525L289.417 8.51936L289.271 8.39042C287.978 7.25335 286.251 6.65259 284.275 6.65259C282.133 6.65259 280.189 7.37575 278.801 8.68847C277.404 10.0096 276.636 11.867 276.636 13.9207C276.636 15.9836 277.402 17.8691 278.793 19.2304C280.189 20.5954 282.128 21.3476 284.256 21.3476C286.481 21.3476 288.424 20.5711 289.741 19.1584C288.725 18.4091 287.743 17.685 287.743 17.685L287.06 18.0606Z" fill="#21A038"/>
<path d="M354.184 10.4004L349.585 18.0095H348.298L343.598 10.5023V21.1591H341.043V6.84161H344.272L349.013 14.6348L353.713 6.84161H356.738V21.1601H354.183V10.4004H354.184Z" fill="#222458"/>
<path d="M367.45 6.84061L373.336 21.159H370.617L369.248 17.7637H362.687L361.338 21.159H358.743L364.548 6.84061H367.45ZM363.608 15.4111H368.308L365.957 9.54079L363.608 15.4111Z" fill="#222458"/>
<path d="M377.911 16.6995V21.159H375.356V6.84061H380.118C384.634 6.84061 386.556 8.45698 386.556 11.6888C386.556 15.0234 384.308 16.7005 380.118 16.7005H377.911V16.6995ZM377.911 9.19229V14.3469H380.302C382.672 14.3469 383.899 13.5696 383.899 11.6262C383.899 9.86687 382.837 9.19229 380.343 9.19229H377.911Z" fill="#222458"/>
<path d="M391.931 21.1581H389.376V6.84061H391.931V12.8539H394.077L398.675 6.84061H401.782L396.326 13.6518L402.662 21.159H399.391L394.2 14.9608H391.932V21.1581H391.931Z" fill="#222458"/>
<path d="M413.823 14.9603H407.242V18.806H414.803V21.1586H404.687V6.84015H414.578V9.19277H407.241V12.6086H413.822V14.9603H413.823Z" fill="#222458"/>
<path d="M428.467 9.19276H423.644V21.1586H421.089V9.19276H416.348V6.84015H428.467V9.19276Z" fill="#222458"/>
<path d="M433.172 17.5381L440.979 6.84015H443.758V21.1586H441.203V10.2971L433.355 21.1586H430.616V6.84108H433.17V17.5381H433.172Z" fill="#222458"/>
<path d="M457.864 14.9603H450.036V21.1586H447.481V6.84015H450.036V12.6086H457.864V6.84015H460.419V21.1586H457.864V14.9603Z" fill="#222458"/>
<path d="M473.842 9.19229H466.69V21.1581H464.135V6.84061H473.842V9.19229Z" fill="#222458"/>
<defs>
<linearGradient id="paint0_linear_145_112758" x1="4.08768" y1="22.1376" x2="1.06533" y2="13.3771" gradientUnits="userSpaceOnUse">
<stop offset="0.1444" stop-color="#F2E913"/>
<stop offset="0.3037" stop-color="#E7E518"/>
<stop offset="0.5823" stop-color="#CADB26"/>
<stop offset="0.891" stop-color="#A3CD39"/>
</linearGradient>
<linearGradient id="paint1_linear_145_112758" x1="4.31893" y1="6.00493" x2="12.1363" y2="3.0176" gradientUnits="userSpaceOnUse">
<stop offset="0.0592" stop-color="#0FA8E0"/>
<stop offset="0.5385" stop-color="#0099F9"/>
<stop offset="0.9234" stop-color="#0291EB"/>
</linearGradient>
<linearGradient id="paint2_linear_145_112758" x1="11.2492" y1="24.3269" x2="20.0932" y2="22.3225" gradientUnits="userSpaceOnUse">
<stop offset="0.1226" stop-color="#A3CD39"/>
<stop offset="0.2846" stop-color="#86C339"/>
<stop offset="0.8693" stop-color="#21A038"/>
</linearGradient>
<linearGradient id="paint3_linear_145_112758" x1="11.4526" y1="2.92855" x2="19.0124" y2="5.26758" gradientUnits="userSpaceOnUse">
<stop offset="0.0566" stop-color="#0291EB"/>
<stop offset="0.79" stop-color="#0C8ACB"/>
</linearGradient>
<linearGradient id="paint4_linear_145_112758" x1="3.80764" y1="21.7129" x2="12.035" y2="24.7954" gradientUnits="userSpaceOnUse">
<stop offset="0.1324" stop-color="#F2E913"/>
<stop offset="0.2977" stop-color="#EBE716"/>
<stop offset="0.5306" stop-color="#D9E01F"/>
<stop offset="0.8023" stop-color="#BBD62D"/>
<stop offset="0.9829" stop-color="#A3CD39"/>
</linearGradient>
<linearGradient id="paint5_linear_145_112758" x1="1.03609" y1="14.3353" x2="4.32488" y2="5.75616" gradientUnits="userSpaceOnUse">
<stop offset="0.0698" stop-color="#A3CD39"/>
<stop offset="0.2599" stop-color="#81C55F"/>
<stop offset="0.9216" stop-color="#0FA8E0"/>
</linearGradient>
<linearGradient id="paint6_linear_145_112758" x1="248.706" y1="22.1476" x2="245.676" y2="13.3891" gradientUnits="userSpaceOnUse">
<stop offset="0.1444" stop-color="#F2E913"/>
<stop offset="0.3037" stop-color="#E7E518"/>
<stop offset="0.5823" stop-color="#CADB26"/>
<stop offset="0.891" stop-color="#A3CD39"/>
</linearGradient>
<linearGradient id="paint7_linear_145_112758" x1="248.936" y1="6.00925" x2="256.74" y2="3.03521" gradientUnits="userSpaceOnUse">
<stop offset="0.0592" stop-color="#0FA8E0"/>
<stop offset="0.5385" stop-color="#0099F9"/>
<stop offset="0.9234" stop-color="#0291EB"/>
</linearGradient>
<linearGradient id="paint8_linear_145_112758" x1="255.851" y1="24.3381" x2="264.676" y2="22.3435" gradientUnits="userSpaceOnUse">
<stop offset="0.1226" stop-color="#A3CD39"/>
<stop offset="0.2846" stop-color="#86C339"/>
<stop offset="0.8693" stop-color="#21A038"/>
</linearGradient>
<linearGradient id="paint9_linear_145_112758" x1="256.055" y1="2.93223" x2="263.601" y2="5.26043" gradientUnits="userSpaceOnUse">
<stop offset="0.0566" stop-color="#0291EB"/>
<stop offset="0.79" stop-color="#0C8ACB"/>
</linearGradient>
<linearGradient id="paint10_linear_145_112758" x1="248.424" y1="21.7236" x2="256.637" y2="24.7923" gradientUnits="userSpaceOnUse">
<stop offset="0.1324" stop-color="#F2E913"/>
<stop offset="0.2977" stop-color="#EBE716"/>
<stop offset="0.5306" stop-color="#D9E01F"/>
<stop offset="0.8023" stop-color="#BBD62D"/>
<stop offset="0.9829" stop-color="#A3CD39"/>
</linearGradient>
<linearGradient id="paint11_linear_145_112758" x1="245.661" y1="14.3425" x2="248.958" y2="5.76639" gradientUnits="userSpaceOnUse">
<stop offset="0.0698" stop-color="#A3CD39"/>
<stop offset="0.2599" stop-color="#81C55F"/>
<stop offset="0.9216" stop-color="#0FA8E0"/>
</linearGradient>
</defs>
</svg>
