<svg width="230" height="72" viewBox="0 0 230 72" fill="none" xmlns="http://www.w3.org/2000/svg">
<path fill-rule="evenodd" clip-rule="evenodd" d="M140.811 14.02C140.811 9.34697 137.708 6.55623 133.055 6.53543C128.342 6.53543 125.299 9.61328 125.299 13.9784C125.299 18.6722 128.401 21.4639 133.055 21.4639C137.77 21.4639 140.811 18.3822 140.811 14.02ZM138.082 13.9992C138.082 17.0383 136.157 19.0859 133.076 19.0859V19.083C129.766 19.0622 128.029 16.8296 128.029 13.9992C128.029 10.9808 129.934 8.93333 133.036 8.91253C136.345 8.93333 138.082 11.1659 138.082 13.9992Z" fill="#FF0D65"/>
<path fill-rule="evenodd" clip-rule="evenodd" d="M172.184 14.02C172.184 9.34697 169.082 6.55623 164.428 6.53543C159.713 6.53543 156.674 9.61328 156.673 13.9784C156.673 18.6722 159.775 21.4639 164.428 21.4639C169.143 21.4639 172.184 18.3822 172.184 14.02ZM169.456 13.9992C169.456 17.0383 167.531 19.0859 164.449 19.0859L164.45 19.083C161.141 19.0622 159.404 16.8296 159.403 13.9992C159.403 10.9808 161.307 8.93333 164.409 8.91253C167.719 8.93333 169.456 11.1659 169.456 13.9992Z" fill="#FF0D65"/>
<path fill-rule="evenodd" clip-rule="evenodd" d="M174.894 21.2334V6.76019H181.181C184.408 6.76019 186.062 7.95866 186.062 10.3575C186.062 12.0112 185.401 13.1076 183.911 13.6866C185.69 13.9964 186.497 15.1334 186.497 17.0147C186.497 20.0133 184.346 21.2334 180.829 21.2334H174.894ZM180.809 12.88C182.443 12.88 183.477 12.1566 183.477 10.9156C183.477 9.75781 182.711 9.13729 180.871 9.13729H177.48V12.88H180.809ZM180.998 18.8554C182.982 18.8554 183.893 18.2141 183.893 16.8286C183.893 15.4432 182.86 14.9058 181.039 14.9058H177.483V18.8554H180.998Z" fill="#FF0D65"/>
<path fill-rule="evenodd" clip-rule="evenodd" d="M193.983 11.267H192.018V6.76019H189.434V21.2334H194.008C198.227 21.2334 200.501 19.5373 200.501 16.1676C200.501 12.9008 198.574 11.267 193.983 11.267ZM192.018 18.8554V13.645H194.211C196.734 13.645 197.83 14.3269 197.83 16.1053C197.83 18.0696 196.59 18.8554 194.169 18.8554H192.018Z" fill="#FF0D65"/>
<path d="M205.793 14.9682H212.452L212.455 12.5901H205.795V9.13729H213.221V6.76019H203.207V21.2334H213.444V18.8554H205.793V14.9682Z" fill="#FF0D65"/>
<path fill-rule="evenodd" clip-rule="evenodd" d="M146.102 16.7257V21.2334H143.516V6.76019H148.334C152.904 6.76019 154.852 8.3931 154.852 11.6598C154.852 15.0305 152.577 16.7257 148.334 16.7257H146.102ZM146.102 9.13729V14.3477H148.521C150.92 14.3477 152.161 13.5619 152.161 11.5985C152.161 9.82011 151.086 9.13729 148.563 9.13729H146.102Z" fill="#FF0D65"/>
<path fill-rule="evenodd" clip-rule="evenodd" d="M110.636 18.8554C111.462 16.891 112.062 14.1616 112.125 9.75781L112.166 6.76019H122.341V18.8554H124.016V23.9213H121.597V21.2334H111.483V23.9213H109.064V18.8554H110.636ZM113.159 18.8554H119.756V9.13729H114.524V9.82011C114.441 13.6035 113.983 16.5812 113.159 18.8554Z" fill="#FF0D65"/>
<path d="M101.618 6.55346C99.3225 6.55346 97.6476 7.23535 96.8201 7.83502L96.8182 11.4324C97.6665 10.1507 99.4245 8.88998 101.616 8.93056C103.147 8.97211 104.346 9.50948 104.346 10.8534C104.346 11.9291 103.705 12.8178 101.844 12.8178H99.6711V14.9475H101.864C104.118 14.9475 105.069 15.5472 105.069 16.8287C105.069 18.2973 103.663 19.0415 101.905 19.0623C99.2365 19.0831 97.3548 17.9252 96.4658 16.4566V19.6413C97.2348 20.5092 99.2365 21.4612 101.864 21.4404C105.752 21.4196 107.757 19.4967 107.757 16.995C107.757 15.092 106.685 13.9341 104.451 13.6036C106.127 13.0038 107.016 11.8875 107.016 10.1923C107.016 7.649 104.865 6.57426 101.618 6.55346Z" fill="#FF0D65"/>
<path d="M40.7044 18.6447C41.6444 18.65 42.5704 18.4192 43.3967 17.9737L44.0879 17.6015L46.1059 19.0796C44.7744 20.4967 42.812 21.2756 40.5639 21.2756C38.4148 21.2756 36.4505 20.5174 35.0455 19.1518C33.6404 17.7862 32.8662 15.8883 32.8662 13.8263C32.8662 11.7644 33.6517 9.89453 35.054 8.57771C36.4562 7.26089 38.4195 6.53543 40.5837 6.53543C42.5791 6.53543 44.3236 7.1381 45.6297 8.27873L45.7777 8.40339L43.5409 10.0417C42.7144 9.45423 41.7204 9.14518 40.7044 9.15974C37.8933 9.15974 35.8527 11.1542 35.8527 13.9022C35.8527 16.6502 37.8933 18.6447 40.7044 18.6447Z" fill="#21A038"/>
<path fill-rule="evenodd" clip-rule="evenodd" d="M55.6622 12.3191H51.8676V9.11177H57.9245L61.1891 6.72087H48.7491V21.0842H55.2558C58.908 21.0842 61.0024 19.4394 61.0024 16.5723C61.0062 13.8299 59.108 12.3191 55.6622 12.3191ZM55.1191 18.6924H51.8676V14.7109H55.1191C57.0994 14.7109 58.0197 15.3773 58.0197 16.7017C58.0197 18.0551 57.04 18.6924 55.1191 18.6924Z" fill="#21A038"/>
<path d="M74.8362 6.72087L71.5716 9.11177H67.0282V12.6237H73.6886V15.0155H67.0282V18.6924H74.8362V21.0842H63.9097V6.72087H74.8362Z" fill="#21A038"/>
<path fill-rule="evenodd" clip-rule="evenodd" d="M77.7397 6.72087H83.6891C87.4847 6.72087 89.8412 8.69001 89.8412 11.8607C89.8412 15.0315 87.4828 17.0156 83.6872 17.0156H80.8582V21.0842H77.7397V6.72087ZM80.8582 14.6238H83.6221C85.6203 14.6238 86.7199 13.6453 86.7199 11.8682C86.7199 10.0912 85.6203 9.11177 83.6221 9.11177H80.8582V14.6238Z" fill="#21A038"/>
<path d="M23.0007 6.6626C23.5686 7.39478 24.0543 8.19481 24.4427 9.04761L13.4785 17.1063L8.89746 14.2426V10.7975L13.4785 13.6612L23.0007 6.6626Z" fill="#21A038"/>
<path d="M4.22435 13.9996C4.22435 13.845 4.22813 13.6914 4.23569 13.5388L1.45946 13.4002C1.45001 13.5991 1.44434 13.7988 1.44434 13.9996C1.44434 17.3128 2.79088 20.3131 4.96896 22.4852L6.93727 20.5223C5.26284 18.8506 4.22435 16.5438 4.22435 13.9996Z" fill="url(#paint0_linear_145_112906)"/>
<path d="M13.4779 4.77137C13.6329 4.77137 13.7869 4.77702 13.94 4.78456L14.0789 2.01508C13.8795 2.00565 13.6792 2 13.4779 2C10.1555 2 7.14684 3.34281 4.96875 5.51486L6.93706 7.47772C8.61338 5.80604 10.9266 4.77137 13.4779 4.77137Z" fill="url(#paint1_linear_145_112906)"/>
<path d="M13.4779 23.2277C13.323 23.2277 13.1689 23.2239 13.0159 23.2164L12.877 25.985C13.0763 25.9944 13.2767 26 13.4779 26C16.8003 26 19.809 24.6572 21.9871 22.4852L20.0188 20.5223C18.3425 22.1921 16.0293 23.2277 13.4779 23.2277Z" fill="url(#paint2_linear_145_112906)"/>
<path d="M18.6955 6.3818L21.0361 4.66206C18.9705 2.99698 16.3417 2 13.4785 2V4.77231C15.4128 4.77137 17.2091 5.36692 18.6955 6.3818Z" fill="url(#paint3_linear_145_112906)"/>
<path d="M25.511 13.9995C25.511 13.2655 25.4449 12.5474 25.3183 11.8492L22.7282 13.7526C22.7301 13.8346 22.732 13.9166 22.732 13.9986C22.732 16.7078 21.5546 19.1484 19.6836 20.838L21.5517 22.8969C23.9831 20.7023 25.511 17.5285 25.511 13.9995Z" fill="#21A038"/>
<path d="M13.4778 23.2277C10.761 23.2277 8.31366 22.0536 6.61938 20.1878L4.55469 22.0507C6.7564 24.4763 9.93895 26 13.4778 26V23.2277Z" fill="url(#paint4_linear_145_112906)"/>
<path d="M7.27272 7.16014L5.40458 5.10117C2.9723 7.29678 1.44434 10.4705 1.44434 13.9995H4.22435C4.22529 11.2894 5.40174 8.84972 7.27272 7.16014Z" fill="url(#paint5_linear_145_112906)"/>
<path d="M21.4926 46.6688C22.0618 47.4087 22.5361 48.2055 22.9345 49.0593L11.9874 57.1224L7.41504 54.2576V50.8047L11.9874 53.6695L21.4926 46.6688Z" fill="#21A038"/>
<path d="M2.76996 54.0091C2.76996 53.8574 2.76996 53.7055 2.78899 53.5538L0.0190272 53.421C-2.22172e-06 53.6107 0 53.8194 0 54.0281C0 57.3482 1.34707 60.3458 3.50995 62.5086L5.48303 60.5355C3.79451 58.8659 2.76996 56.5514 2.76996 54.0091Z" fill="url(#paint6_linear_145_112906)"/>
<path d="M11.9909 44.7699C12.1427 44.7699 12.2944 44.7699 12.4462 44.7889L12.5791 42.019C12.3893 42 12.1806 42 11.9719 42C8.65173 42 5.6541 43.347 3.49121 45.5099L5.46439 47.4829C7.13398 45.8134 9.44861 44.7699 11.9909 44.7699Z" fill="url(#paint7_linear_145_112906)"/>
<path d="M11.9915 63.2302C11.8397 63.2302 11.6879 63.2302 11.5361 63.2111L11.4033 65.981C11.593 66.0001 11.8018 66.0001 12.0105 66.0001C15.3306 66.0001 18.3283 64.653 20.4912 62.4902L18.518 60.5172C16.8484 62.2056 14.5338 63.2302 11.9915 63.2302Z" fill="url(#paint8_linear_145_112906)"/>
<path d="M17.2112 46.3826L19.5447 44.6561C17.4768 42.9866 14.8586 42 12.0127 42V44.7699C13.9289 44.7699 15.7124 45.3771 17.2112 46.3826Z" fill="url(#paint9_linear_145_112906)"/>
<path d="M23.9989 54.009C23.9989 53.2691 23.942 52.5482 23.8092 51.8652L21.2289 53.7624C21.2289 53.8382 21.2289 53.9331 21.2289 54.009C21.2289 56.722 20.0527 59.1694 18.1934 60.8579L20.0527 62.9259C22.4812 60.7061 23.9989 57.5378 23.9989 54.009Z" fill="#21A038"/>
<path d="M11.9884 63.2303C9.27529 63.2303 6.82784 62.054 5.13932 60.1947L3.07129 62.054C5.27213 64.4824 8.44054 66.0002 11.9694 66.0002V63.2303H11.9884Z" fill="url(#paint10_linear_145_112906)"/>
<path d="M5.80555 47.1598L3.94626 45.0919C1.51784 47.2926 0 50.4609 0 53.9897H2.76996C2.76996 51.2958 3.94626 48.8484 5.80555 47.1598Z" fill="url(#paint11_linear_145_112906)"/>
<path d="M70.3171 49.2272L73.5498 46.8428H62.7324V61.1613H73.5498V58.7778H65.8195V55.1116H72.4128V52.7281H65.8195V49.2272H70.3171Z" fill="#21A038"/>
<path d="M54.5613 52.4245H50.8049V49.2272H56.8017L60.0335 46.8429H47.7188V61.1613H54.1636C57.7791 61.1613 59.8524 59.5216 59.8524 56.6635C59.8524 53.9306 57.9732 52.4245 54.5613 52.4245ZM54.0245 58.7779H50.8058V54.8089H54.0245C55.9839 54.8089 56.896 55.4732 56.896 56.7934C56.896 58.1425 55.9298 58.7779 54.0245 58.7779Z" fill="#21A038"/>
<path d="M82.3133 46.8438H76.4238V61.1622H79.5109V57.1063H82.3133C86.0715 57.1063 88.4062 55.1284 88.4062 51.9676C88.4062 48.8068 86.0715 46.8438 82.3133 46.8438ZM82.247 54.722H79.5109V49.2272H82.247C84.2251 49.2272 85.3145 50.2027 85.3145 51.9741C85.3145 53.7465 84.2251 54.722 82.247 54.722Z" fill="#21A038"/>
<path d="M42.4234 58.0606C41.6318 58.4979 40.7104 58.7287 39.7583 58.7287C36.9755 58.7287 34.9554 56.7404 34.9554 54.001C34.9554 51.2616 36.9755 49.2734 39.7583 49.2734C40.8112 49.2734 41.755 49.5695 42.5662 50.1525L44.7805 48.5194L44.6339 48.3904C43.341 47.2534 41.6141 46.6526 39.6388 46.6526C37.4964 46.6526 35.5519 47.3757 34.1638 48.6885C32.7673 50.0096 31.999 51.867 31.999 53.9207C31.999 55.9836 32.7654 57.8691 34.1563 59.2304C35.5519 60.5954 37.4917 61.3476 39.6192 61.3476C41.8446 61.3476 43.7872 60.5711 45.1044 59.1584C44.0878 58.4091 43.1067 57.685 43.1067 57.685L42.4234 58.0606Z" fill="#21A038"/>
<path d="M109.547 50.4004L104.949 58.0095H103.661L98.9612 50.5023V61.1591H96.4062V46.8416H99.6352L104.376 54.6348L109.077 46.8416H112.101V61.1601H109.546V50.4004H109.547Z" fill="#222458"/>
<path d="M122.813 46.8406L128.699 61.159H125.981L124.611 57.7637H118.05L116.702 61.159H114.106L119.911 46.8406H122.813ZM118.971 55.4111H123.671L121.321 49.5408L118.971 55.4111Z" fill="#222458"/>
<path d="M133.275 56.6995V61.159H130.72V46.8406H135.481C139.998 46.8406 141.919 48.457 141.919 51.6888C141.919 55.0234 139.671 56.7005 135.481 56.7005H133.275V56.6995ZM133.275 49.1923V54.3469H135.665C138.036 54.3469 139.262 53.5696 139.262 51.6262C139.262 49.8669 138.2 49.1923 135.706 49.1923H133.275Z" fill="#222458"/>
<path d="M147.294 61.1581H144.739V46.8406H147.294V52.8539H149.44L154.039 46.8406H157.145L151.689 53.6518L158.025 61.159H154.755L149.564 54.9608H147.295V61.1581H147.294Z" fill="#222458"/>
<path d="M169.186 54.9603H162.605V58.806H170.166V61.1586H160.05V46.8401H169.941V49.1928H162.604V52.6086H169.185V54.9603H169.186Z" fill="#222458"/>
<path d="M183.831 49.1928H179.007V61.1586H176.452V49.1928H171.711V46.8401H183.831V49.1928Z" fill="#222458"/>
<path d="M188.535 57.5381L196.342 46.8401H199.121V61.1586H196.566V50.2971L188.718 61.1586H185.979V46.8411H188.534V57.5381H188.535Z" fill="#222458"/>
<path d="M213.227 54.9603H205.4V61.1586H202.845V46.8401H205.4V52.6086H213.227V46.8401H215.782V61.1586H213.227V54.9603Z" fill="#222458"/>
<path d="M229.206 49.1923H222.053V61.1581H219.498V46.8406H229.206V49.1923Z" fill="#222458"/>
<defs>
<linearGradient id="paint0_linear_145_112906" x1="5.53201" y1="22.1376" x2="2.50967" y2="13.3771" gradientUnits="userSpaceOnUse">
<stop offset="0.1444" stop-color="#F2E913"/>
<stop offset="0.3037" stop-color="#E7E518"/>
<stop offset="0.5823" stop-color="#CADB26"/>
<stop offset="0.891" stop-color="#A3CD39"/>
</linearGradient>
<linearGradient id="paint1_linear_145_112906" x1="5.76326" y1="6.00493" x2="13.5807" y2="3.0176" gradientUnits="userSpaceOnUse">
<stop offset="0.0592" stop-color="#0FA8E0"/>
<stop offset="0.5385" stop-color="#0099F9"/>
<stop offset="0.9234" stop-color="#0291EB"/>
</linearGradient>
<linearGradient id="paint2_linear_145_112906" x1="12.6935" y1="24.3269" x2="21.5375" y2="22.3225" gradientUnits="userSpaceOnUse">
<stop offset="0.1226" stop-color="#A3CD39"/>
<stop offset="0.2846" stop-color="#86C339"/>
<stop offset="0.8693" stop-color="#21A038"/>
</linearGradient>
<linearGradient id="paint3_linear_145_112906" x1="12.8969" y1="2.92855" x2="20.4568" y2="5.26758" gradientUnits="userSpaceOnUse">
<stop offset="0.0566" stop-color="#0291EB"/>
<stop offset="0.79" stop-color="#0C8ACB"/>
</linearGradient>
<linearGradient id="paint4_linear_145_112906" x1="5.25198" y1="21.7129" x2="13.4793" y2="24.7954" gradientUnits="userSpaceOnUse">
<stop offset="0.1324" stop-color="#F2E913"/>
<stop offset="0.2977" stop-color="#EBE716"/>
<stop offset="0.5306" stop-color="#D9E01F"/>
<stop offset="0.8023" stop-color="#BBD62D"/>
<stop offset="0.9829" stop-color="#A3CD39"/>
</linearGradient>
<linearGradient id="paint5_linear_145_112906" x1="2.48042" y1="14.3353" x2="5.76922" y2="5.75616" gradientUnits="userSpaceOnUse">
<stop offset="0.0698" stop-color="#A3CD39"/>
<stop offset="0.2599" stop-color="#81C55F"/>
<stop offset="0.9216" stop-color="#0FA8E0"/>
</linearGradient>
<linearGradient id="paint6_linear_145_112906" x1="4.06907" y1="62.1476" x2="1.03908" y2="53.3891" gradientUnits="userSpaceOnUse">
<stop offset="0.1444" stop-color="#F2E913"/>
<stop offset="0.3037" stop-color="#E7E518"/>
<stop offset="0.5823" stop-color="#CADB26"/>
<stop offset="0.891" stop-color="#A3CD39"/>
</linearGradient>
<linearGradient id="paint7_linear_145_112906" x1="4.29957" y1="46.0092" x2="12.1037" y2="43.0352" gradientUnits="userSpaceOnUse">
<stop offset="0.0592" stop-color="#0FA8E0"/>
<stop offset="0.5385" stop-color="#0099F9"/>
<stop offset="0.9234" stop-color="#0291EB"/>
</linearGradient>
<linearGradient id="paint8_linear_145_112906" x1="11.2138" y1="64.3381" x2="20.0389" y2="62.3435" gradientUnits="userSpaceOnUse">
<stop offset="0.1226" stop-color="#A3CD39"/>
<stop offset="0.2846" stop-color="#86C339"/>
<stop offset="0.8693" stop-color="#21A038"/>
</linearGradient>
<linearGradient id="paint9_linear_145_112906" x1="11.4185" y1="42.9322" x2="18.9638" y2="45.2604" gradientUnits="userSpaceOnUse">
<stop offset="0.0566" stop-color="#0291EB"/>
<stop offset="0.79" stop-color="#0C8ACB"/>
</linearGradient>
<linearGradient id="paint10_linear_145_112906" x1="3.78735" y1="61.7236" x2="12.0004" y2="64.7923" gradientUnits="userSpaceOnUse">
<stop offset="0.1324" stop-color="#F2E913"/>
<stop offset="0.2977" stop-color="#EBE716"/>
<stop offset="0.5306" stop-color="#D9E01F"/>
<stop offset="0.8023" stop-color="#BBD62D"/>
<stop offset="0.9829" stop-color="#A3CD39"/>
</linearGradient>
<linearGradient id="paint11_linear_145_112906" x1="1.02445" y1="54.3425" x2="4.32113" y2="45.7664" gradientUnits="userSpaceOnUse">
<stop offset="0.0698" stop-color="#A3CD39"/>
<stop offset="0.2599" stop-color="#81C55F"/>
<stop offset="0.9216" stop-color="#0FA8E0"/>
</linearGradient>
</defs>
</svg>
