<svg width="117" height="18" viewBox="0 0 117 18" fill="none" xmlns="http://www.w3.org/2000/svg">
<g id="Union">
<path fill-rule="evenodd" clip-rule="evenodd" d="M44.3662 8.01993C44.3662 3.34694 41.2639 0.556198 36.6105 0.5354C31.8975 0.5354 28.8547 3.61325 28.8547 7.97839C28.8547 12.6721 31.957 15.4638 36.6105 15.4638C41.3253 15.4638 44.3662 12.3822 44.3662 8.01993ZM41.638 7.99914C41.638 11.0383 39.7128 13.0858 36.6313 13.0858V13.083C33.3221 13.0622 31.5848 10.8296 31.5848 7.99914C31.5848 4.98077 33.4893 2.9333 36.5916 2.9125C39.9008 2.9333 41.638 5.16587 41.638 7.99914Z" fill="#FF0D65"/>
<path fill-rule="evenodd" clip-rule="evenodd" d="M75.7397 8.01993C75.7397 3.34694 72.6374 0.556198 67.984 0.5354C63.2691 0.5354 60.2292 3.61325 60.2282 7.97839C60.2282 12.6721 63.3305 15.4638 67.984 15.4638C72.6988 15.4638 75.7397 12.3822 75.7397 8.01993ZM73.0115 7.99914C73.0115 11.0383 71.0862 13.0858 68.0047 13.0858L68.0057 13.083C64.6965 13.0622 62.9593 10.8296 62.9583 7.99914C62.9583 4.98077 64.8628 2.9333 67.9651 2.9125C71.2742 2.9333 73.0115 5.16587 73.0115 7.99914Z" fill="#FF0D65"/>
<path fill-rule="evenodd" clip-rule="evenodd" d="M78.45 15.2334V0.760161H84.7367C87.9637 0.760161 89.6179 1.95863 89.6179 4.35745C89.6179 6.01115 88.9566 7.10761 87.4668 7.68653C89.2457 7.99632 90.0524 9.13341 90.0524 11.0147C90.0524 14.0132 87.9014 15.2334 84.3844 15.2334H78.45ZM84.3646 6.87999C85.9988 6.87999 87.0323 6.15659 87.0323 4.91561C87.0323 3.75777 86.2671 3.13726 84.4269 3.13726H81.0355V6.87999H84.3646ZM84.5535 12.8553C86.5373 12.8553 87.4489 12.2141 87.4489 10.8286C87.4489 9.44316 86.4154 8.90579 84.595 8.90579H81.0384V12.8553H84.5535Z" fill="#FF0D65"/>
<path fill-rule="evenodd" clip-rule="evenodd" d="M97.5389 5.26696H95.574V0.760161H92.9894V15.2334H97.5635C101.782 15.2334 104.057 13.5372 104.057 10.1675C104.057 6.90079 102.13 5.26696 97.5389 5.26696ZM95.574 12.8553V7.64498H97.7666C100.29 7.64498 101.386 8.32687 101.386 10.1052C101.386 12.0696 100.145 12.8553 97.725 12.8553H95.574Z" fill="#FF0D65"/>
<path d="M109.348 8.96814H116.008L116.011 6.59007H109.351V3.13726H116.776V0.760161H106.763V15.2334H117V12.8553H109.348V8.96814Z" fill="#FF0D65"/>
<path fill-rule="evenodd" clip-rule="evenodd" d="M49.6573 10.7257V15.2334H47.0718V0.760161H51.8896C56.4599 0.760161 58.4078 2.39307 58.4078 5.6598C58.4078 9.03044 56.1331 10.7257 51.8896 10.7257H49.6573ZM49.6573 3.13726V8.34762H52.0766C54.4761 8.34762 55.7165 7.56188 55.7165 5.59843C55.7165 3.82008 54.6414 3.13726 52.1182 3.13726H49.6573Z" fill="#FF0D65"/>
<path fill-rule="evenodd" clip-rule="evenodd" d="M14.1916 12.8553C15.0182 10.891 15.618 8.1616 15.6804 3.75777L15.7219 0.760161H25.897V12.8553H27.5719V17.9212H25.1526V15.2334H15.0389V17.9212H12.6196V12.8553H14.1916ZM16.7148 12.8553H23.3114V3.13726H18.0798V3.82008C17.9967 7.60343 17.5385 10.5812 16.7148 12.8553Z" fill="#FF0D65"/>
<path d="M5.17372 0.553431C2.87818 0.553431 1.20326 1.23532 0.375729 1.83499L0.373836 5.43232C1.22217 4.15071 2.98018 2.88995 5.17183 2.93053C6.70219 2.97208 7.90193 3.50945 7.90193 4.85336C7.90193 5.92907 7.2605 6.81778 5.3995 6.81778H3.22674V8.94743H5.41933C7.67331 8.94743 8.62459 9.54715 8.62459 10.8287C8.62459 12.2973 7.21892 13.0415 5.46091 13.0623C2.79221 13.0831 0.910419 11.9252 0.0214844 10.4566V13.6412C0.790452 14.5091 2.79221 15.4611 5.41933 15.4403C9.30759 15.4196 11.3131 13.4967 11.3131 10.995C11.3131 9.09195 10.2409 7.93407 8.00677 7.60352C9.68264 7.00381 10.5716 5.88752 10.5716 4.19226C10.5716 1.64897 8.42055 0.574229 5.17372 0.553431Z" fill="#FF0D65"/>
</g>
</svg>
