<svg width="133" height="16" viewBox="0 0 133 16" fill="none" xmlns="http://www.w3.org/2000/svg">
<g id="Group">
<path id="Vector" d="M13.1841 4.40043L8.58565 12.0095H7.29835L2.5982 4.50228V15.1591H0.0432129V0.841614H3.27218L8.01342 8.63477L12.7136 0.841614H15.7381V15.1601H13.1831V4.40043H13.1841Z" fill="#222458"/>
<path id="Vector_2" d="M26.4499 0.840637L32.3356 15.1591H29.6173L28.2478 11.7638H21.6872L20.3383 15.1591H17.7432L23.5477 0.840637H26.4499ZM22.6076 9.41115H27.3078L24.9572 3.54082L22.6076 9.41115Z" fill="#222458"/>
<path id="Vector_3" d="M36.9117 10.6996V15.1591H34.3567V0.840637H39.1185C43.6347 0.840637 45.5559 2.45701 45.5559 5.68882C45.5559 9.0234 43.308 10.7005 39.1185 10.7005H36.9117V10.6996ZM36.9117 3.19232V8.34696H39.3024C41.6725 8.34696 42.8991 7.5696 42.8991 5.62622C42.8991 3.8669 41.8368 3.19232 39.3434 3.19232H36.9117Z" fill="#222458"/>
<path id="Vector_4" d="M50.9312 15.1581H48.3762V0.840637H50.9312V6.85392H53.0773L57.6757 0.840637H60.7824L55.3261 7.65182L61.6618 15.1591H58.3917L53.2005 8.9608H50.9321V15.1581H50.9312Z" fill="#222458"/>
<path id="Vector_5" d="M72.8227 8.96032H66.2415V12.806H73.8028V15.1586H63.6865V0.840149H73.5779V3.19277H66.2406V6.60864H72.8217V8.96032H72.8227Z" fill="#222458"/>
<path id="Vector_6" d="M87.4675 3.19276H82.6441V15.1586H80.0891V3.19276H75.3479V0.840149H87.4675V3.19276Z" fill="#222458"/>
<path id="Vector_7" d="M92.1726 11.5381L99.9795 0.840149H102.758V15.1586H100.203V4.29713L92.3556 15.1586H89.6167V0.841081H92.1707V11.5381H92.1726Z" fill="#222458"/>
<path id="Vector_8" d="M116.864 8.96032H109.037V15.1586H106.482V0.840149H109.037V6.60864H116.864V0.840149H119.419V15.1586H116.864V8.96032Z" fill="#222458"/>
<path id="Vector_9" d="M132.843 3.19232H125.69V15.1581H123.135V0.840637H132.843V3.19232Z" fill="#222458"/>
</g>
</svg>
