<svg width="58" height="16" viewBox="0 0 58 16" fill="none" xmlns="http://www.w3.org/2000/svg">
<g id="Union">
<path d="M8.25958 12.6447C9.19954 12.65 10.1256 12.4191 10.9518 11.9736L11.6431 11.6015L13.6611 13.0796C12.3296 14.4967 10.3672 15.2756 8.11908 15.2756C5.96999 15.2756 4.00571 14.5173 2.60065 13.1517C1.19558 11.7862 0.421387 9.88824 0.421387 7.82628C0.421387 5.76433 1.2069 3.8945 2.60915 2.57768C4.01138 1.26086 5.97471 0.5354 8.13888 0.5354C10.1343 0.5354 11.8788 1.13807 13.1849 2.2787L13.3329 2.40336L11.0961 4.04167C10.2696 3.4542 9.27559 3.14515 8.25958 3.1597C5.4485 3.1597 3.40787 5.15416 3.40787 7.90221C3.40787 10.6502 5.4485 12.6447 8.25958 12.6447Z" fill="#21A038"/>
<path fill-rule="evenodd" clip-rule="evenodd" d="M23.2174 6.31904H19.4228V3.11174H25.4797L28.7443 0.720837H16.3043V15.0842H22.811C26.4632 15.0842 28.5576 13.4394 28.5576 10.5723C28.5614 7.8299 26.6631 6.31904 23.2174 6.31904ZM22.6742 12.6923H19.4228V8.71091H22.6742C24.6546 8.71091 25.5749 9.37728 25.5749 10.7017C25.5749 12.055 24.5951 12.6923 22.6742 12.6923Z" fill="#21A038"/>
<path d="M42.3914 0.720837L39.1267 3.11174H34.5834V6.62365H41.2438V9.01551H34.5834V12.6923H42.3914V15.0842H31.4649V0.720837H42.3914Z" fill="#21A038"/>
<path fill-rule="evenodd" clip-rule="evenodd" d="M45.2949 0.720837H51.2443C55.0398 0.720837 57.3964 2.68998 57.3964 5.86071C57.3964 9.03144 55.0379 11.0156 51.2424 11.0156H48.4134V15.0842H45.2949V0.720837ZM48.4134 8.62373H51.1773C53.1755 8.62373 54.2751 7.64524 54.2751 5.86822C54.2751 4.09119 53.1755 3.11174 51.1773 3.11174H48.4134V8.62373Z" fill="#21A038"/>
</g>
</svg>
