<svg width="24" height="24" viewBox="0 0 24 24" fill="none" xmlns="http://www.w3.org/2000/svg">
<path d="M13.5215 9.14286C14.0348 9.14286 14.5365 8.99205 14.9632 8.70949C15.39 8.42694 15.7226 8.02534 15.919 7.55547C16.1155 7.08561 16.1668 6.56858 16.0667 6.06977C15.9666 5.57096 15.7194 5.11278 15.3565 4.75315C14.9936 4.39353 14.5312 4.14863 14.0278 4.04941C13.5244 3.95019 13.0026 4.00111 12.5284 4.19574C12.0542 4.39036 11.6489 4.71995 11.3638 5.14282C11.0786 5.56569 10.9264 6.06285 10.9264 6.57143C10.9264 7.25341 11.1998 7.90747 11.6865 8.3897C12.1732 8.87194 12.8332 9.14286 13.5215 9.14286ZM13.5215 5.71429C13.6926 5.71429 13.8598 5.76456 14.0021 5.85874C14.1443 5.95293 14.2552 6.08679 14.3207 6.24342C14.3861 6.40004 14.4033 6.57238 14.3699 6.73865C14.3365 6.90492 14.2541 7.05765 14.1332 7.17752C14.0122 7.29739 13.8581 7.37903 13.6903 7.4121C13.5225 7.44518 13.3485 7.4282 13.1905 7.36333C13.0324 7.29845 12.8973 7.18859 12.8023 7.04763C12.7072 6.90668 12.6565 6.74096 12.6565 6.57143C12.6565 6.3441 12.7476 6.12608 12.9098 5.96534C13.0721 5.80459 13.2921 5.71429 13.5215 5.71429ZM19 12.3857C19 12.5498 18.9525 12.7105 18.863 12.8487C18.7736 12.9868 18.646 13.0966 18.4954 13.165C17.9982 13.3394 17.4752 13.4306 16.9477 13.435C15.9385 13.435 14.4788 13.1621 12.6392 12.0779C12.426 12.5935 12.1787 13.0946 11.8989 13.5779C13.6022 14.2021 16.1166 15.7 16.1166 19.1429C16.1166 19.3702 16.0254 19.5882 15.8632 19.7489C15.701 19.9097 15.481 20 15.2516 20C15.0221 20 14.8021 19.9097 14.6399 19.7489C14.4777 19.5882 14.3865 19.3702 14.3865 19.1429C14.3865 17.8079 13.8855 16.7814 12.854 16.0043C12.1937 15.5043 11.4447 15.2186 10.8767 15.0514C10.8183 15.1229 10.7585 15.1943 10.6965 15.2621C9.25475 16.8957 7.46559 17.745 5.48828 17.745C5.25356 17.745 5.01899 17.7333 4.78545 17.71C4.67178 17.6996 4.56132 17.667 4.46042 17.6141C4.35952 17.5612 4.2702 17.489 4.19758 17.4017C4.12497 17.3145 4.0705 17.2138 4.03733 17.1056C4.00416 16.9973 3.99293 16.8837 4.0043 16.7711C4.01567 16.6586 4.04941 16.5494 4.10357 16.4498C4.15773 16.3502 4.23124 16.2623 4.31987 16.191C4.4085 16.1197 4.51049 16.0665 4.61997 16.0345C4.72944 16.0024 4.84424 15.9922 4.95773 16.0043C8.72781 16.3771 10.5429 12.7243 11.142 11.165C8.67735 9.89 7.15923 11.0557 7.14265 11.0714C6.96296 11.2052 6.73779 11.2644 6.51481 11.2365C6.29184 11.2087 6.08857 11.0959 5.94803 10.9221C5.8075 10.7483 5.74074 10.5272 5.7619 10.3054C5.78305 10.0837 5.89045 9.8789 6.06136 9.73429C6.17454 9.64286 8.90802 7.53143 12.8547 10.1871C15.9616 12.2807 17.7637 11.61 17.7926 11.5986C17.9241 11.5424 18.0675 11.5195 18.2102 11.5318C18.3528 11.5441 18.4901 11.5914 18.6098 11.6692C18.7295 11.7471 18.8278 11.8532 18.8959 11.978C18.964 12.1028 18.9998 12.2424 19 12.3843V12.3857Z" fill="#B559F3"/>
</svg>
