<svg width="24" height="24" viewBox="0 0 24 24" fill="none" xmlns="http://www.w3.org/2000/svg">
<circle cx="12" cy="12" r="7.25" stroke="#FF293E" stroke-width="1.5"/>
<path d="M8 10L9.82111 10.9106C9.89482 10.9474 9.89482 11.0526 9.82111 11.0894L8 12" stroke="#FF293E" stroke-width="1.5" stroke-linecap="round"/>
<path d="M16 10L14.1789 10.9106C14.1052 10.9474 14.1052 11.0526 14.1789 11.0894L16 12" stroke="#FF293E" stroke-width="1.5" stroke-linecap="round"/>
<path d="M8 15L9.20797 15.906C9.28159 15.9612 9.38339 15.959 9.45462 15.9008L10.4389 15.0954C10.508 15.0389 10.6061 15.035 10.6794 15.0858L11.8815 15.9179C11.9523 15.9669 12.0465 15.9652 12.1153 15.9135L13.2133 15.09C13.2844 15.0367 13.3822 15.0367 13.4533 15.09L14.5467 15.91C14.6178 15.9633 14.7156 15.9633 14.7867 15.91L16 15" stroke="#FF293E" stroke-width="1.5" stroke-linecap="round"/>
</svg>
